<?xml version="1.0" standalone="no"?>
<!DOCTYPE svg PUBLIC "-//W3C//DTD SVG 20010904//EN"
 "http://www.w3.org/TR/2001/REC-SVG-20010904/DTD/svg10.dtd">
<svg version="1.0" xmlns="http://www.w3.org/2000/svg"
 width="1024.000000pt" height="1024.000000pt" viewBox="0 0 1024.000000 1024.000000"
 preserveAspectRatio="xMidYMid meet">
<metadata>
Created by potrace 1.14, written by Peter Selinger 2001-2017
</metadata>
<g transform="translate(0.000000,1024.000000) scale(0.100000,-0.100000)"
fill="#000000" stroke="none">
<path d="M7255 8720 c-8 -13 9 -20 24 -11 10 6 9 10 -3 14 -8 3 -18 2 -21 -3z"/>
<path d="M7481 8663 c-6 -10 -11 -15 -11 -11 0 11 -100 -52 -100 -63 0 -6 -4
-8 -8 -5 -12 7 -102 -83 -128 -129 -30 -54 -103 -78 -209 -69 -66 6 -73 5
-102 -20 -17 -14 -35 -26 -40 -26 -4 0 -14 -9 -21 -20 -7 -12 -17 -18 -22 -15
-4 3 -18 -8 -30 -25 -12 -17 -26 -28 -31 -25 -5 4 -9 1 -9 -5 0 -6 -4 -8 -10
-5 -5 3 -10 -1 -10 -10 0 -9 -4 -14 -9 -11 -5 3 -14 -1 -21 -9 -7 -8 -9 -15
-4 -15 4 0 -2 -10 -14 -22 -11 -13 -29 -45 -39 -73 -14 -38 -24 -49 -37 -47
-11 2 -15 -1 -11 -7 3 -6 -1 -11 -9 -11 -14 0 -73 -30 -141 -72 -16 -10 -38
-21 -47 -24 -10 -4 -18 -10 -18 -15 0 -5 -3 -8 -7 -7 -5 1 -21 -5 -38 -12 -16
-7 -36 -14 -44 -16 -8 -1 -17 -7 -20 -11 -3 -5 -32 -22 -64 -38 -31 -15 -55
-30 -53 -33 3 -2 -8 -15 -25 -29 -16 -14 -44 -46 -61 -72 -45 -65 -79 -101
-89 -95 -5 3 -9 0 -9 -6 0 -6 -4 -9 -9 -5 -6 3 -15 -4 -21 -15 -6 -11 -15 -18
-20 -15 -5 3 -18 -3 -30 -15 -11 -11 -26 -20 -32 -20 -7 0 -26 -9 -43 -20 -16
-11 -37 -20 -45 -20 -8 0 -26 -12 -39 -25 -13 -14 -32 -25 -42 -25 -10 0 -19
-4 -19 -8 0 -4 -20 -18 -45 -30 -25 -12 -45 -26 -45 -32 0 -5 -3 -9 -7 -8 -5
0 -15 -1 -23 -5 -32 -12 -73 -14 -118 -5 -26 5 -58 11 -71 14 -13 3 -31 13
-40 23 -9 10 -50 31 -91 46 -41 16 -90 39 -107 52 -21 15 -33 19 -33 11 0 -8
-7 -5 -19 7 -13 14 -20 40 -24 83 -6 73 -19 70 115 33 70 -19 136 -22 224 -9
17 2 11 52 -7 71 -9 9 -19 13 -23 10 -3 -4 -6 -1 -6 5 0 7 -7 12 -16 12 -8 0
-13 4 -9 9 7 12 -25 30 -42 24 -7 -3 -16 2 -19 11 -3 9 -12 16 -19 16 -7 0
-12 8 -11 18 0 10 -6 17 -16 17 -9 0 -25 10 -36 23 -11 12 -24 22 -30 22 -11
0 -35 35 -38 55 0 6 -2 12 -4 15 -1 3 -3 19 -5 35 -1 17 -8 44 -15 60 -14 34
-19 85 -7 85 4 0 7 5 7 10 0 6 -6 9 -12 8 -13 -3 -16 47 -7 97 3 15 -1 19 -16
17 -16 -3 -17 -1 -8 9 9 9 9 15 -1 24 -7 7 -11 27 -10 44 1 22 -4 36 -17 44
-10 6 -19 20 -19 30 0 10 -3 16 -8 14 -4 -3 -8 18 -9 46 -2 81 -3 89 -15 85
-16 -6 -20 -48 -8 -64 8 -9 6 -15 -7 -24 -16 -10 -15 -10 5 -5 16 5 22 2 22
-9 0 -9 -3 -15 -7 -15 -38 6 -53 -3 -64 -41 -7 -22 -15 -40 -18 -40 -3 0 -6
-12 -7 -27 0 -38 -10 -89 -20 -104 -4 -7 -8 -42 -10 -78 -1 -36 -2 -73 -3 -82
0 -9 -14 -36 -31 -60 l-29 -44 24 -8 23 -8 -21 -45 c-12 -24 -28 -44 -35 -44
-6 0 -11 -5 -10 -12 2 -7 -2 -12 -9 -13 -15 0 -84 -61 -77 -68 3 -2 -7 -8 -21
-11 -14 -4 -34 -15 -45 -26 -11 -11 -46 -33 -79 -49 -33 -17 -62 -35 -66 -41
-3 -5 -11 -10 -16 -10 -6 0 -7 5 -3 11 3 6 -12 -1 -35 -15 -23 -15 -41 -23
-41 -19 0 4 -9 -3 -20 -15 -12 -12 -26 -22 -33 -23 -7 0 -1 -5 13 -11 16 -6
20 -12 12 -15 -10 -4 -8 -9 5 -19 16 -12 15 -13 -12 -8 -28 5 -31 3 -30 -20 0
-34 39 -63 60 -46 12 10 15 9 15 -4 0 -9 6 -16 14 -16 8 0 17 -8 20 -18 4 -10
17 -19 33 -20 15 -1 30 -8 35 -15 6 -9 8 -9 8 1 0 6 8 12 18 12 14 0 15 -2 2
-10 -13 -8 -13 -10 3 -11 9 -1 22 -3 27 -4 6 -1 18 -3 28 -4 15 -1 15 -3 2
-11 -12 -8 -11 -10 7 -10 12 0 23 4 25 9 4 13 44 18 49 6 2 -5 -6 -11 -19 -13
-12 -2 -22 -8 -22 -13 0 -6 -5 -7 -10 -4 -14 9 -52 -4 -45 -16 4 -5 -2 -12
-11 -16 -16 -6 -16 -7 2 -14 14 -6 9 -8 -19 -8 -23 -1 -36 -5 -35 -13 2 -7 -4
-12 -12 -13 -8 -1 -14 -6 -12 -13 1 -7 -2 -12 -8 -12 -5 0 -10 -6 -10 -14 0
-8 -19 -24 -42 -36 -24 -12 -45 -26 -48 -31 -3 -5 -16 -10 -28 -12 -13 -2 -31
-11 -42 -19 -10 -9 -21 -14 -24 -11 -3 4 -6 1 -6 -5 0 -7 -7 -12 -15 -12 -19
0 -82 -56 -73 -65 3 -4 16 -2 27 5 17 9 21 8 21 -5 0 -9 -4 -14 -9 -11 -5 4
-11 2 -13 -4 -6 -20 -238 126 -238 150 0 5 -13 11 -29 15 -16 3 -32 13 -35 22
-5 11 -2 14 9 9 9 -3 13 -2 10 4 -3 6 -12 10 -19 10 -8 0 -12 10 -10 25 2 19
-5 29 -27 40 -27 14 -59 55 -42 55 16 -1 42 -27 35 -35 -4 -5 -2 -5 4 -2 13 7
53 -20 178 -117 50 -39 107 -81 126 -94 33 -22 33 -22 -5 11 -79 69 -256 208
-298 235 -42 26 -47 32 -47 52 0 5 -3 9 -7 8 -15 -5 -73 24 -67 33 3 5 -11 18
-30 30 -38 22 -48 36 -18 25 18 -8 -41 47 -72 65 -14 8 -17 8 -11 -1 5 -8 3
-11 -6 -8 -8 3 -13 11 -11 18 1 7 -8 21 -20 31 -13 11 -39 34 -58 53 -93 88
-277 210 -314 208 -11 -1 -38 12 -60 28 -22 17 -50 30 -62 30 -23 0 -83 51
-214 180 -37 36 -94 90 -127 121 -34 30 -83 82 -110 115 -26 32 -51 61 -56 62
-4 2 -14 11 -23 20 -13 13 -17 13 -25 1 -7 -11 -9 -11 -9 4 0 15 -7 14 -57
-12 -32 -16 -92 -55 -133 -87 -41 -31 -103 -70 -137 -85 -44 -21 -73 -43 -105
-81 -113 -138 -211 -207 -533 -374 -82 -42 -169 -90 -192 -106 -33 -22 -53
-28 -98 -28 -34 0 -65 6 -80 16 -14 9 -34 14 -45 11 -11 -3 -20 -1 -20 5 0 6
-17 38 -37 72 -21 33 -46 78 -55 99 -9 20 -22 37 -27 37 -11 0 -133 -121 -191
-189 -27 -33 -52 -48 -114 -71 -77 -28 -128 -60 -97 -60 29 0 -23 -40 -172
-131 -84 -50 -174 -106 -202 -124 -27 -17 -94 -56 -147 -85 l-98 -54 0 -1578
0 -1579 220 3 c121 2 220 0 220 -4 0 -4 7 -4 17 -1 11 4 14 3 9 -6 -6 -9 207
-11 958 -8 532 2 969 6 972 9 3 3 20 2 39 -2 23 -5 36 -4 39 4 3 7 7 8 13 1 5
-7 109 -12 278 -14 149 -2 353 -7 455 -11 l185 -7 -275 -3 c-151 -2 -324 -3
-385 -2 -68 1 -100 -2 -85 -7 15 -5 -60 -10 -195 -15 -383 -12 -388 -12 -392
2 -4 9 -100 12 -436 12 -236 0 -428 -2 -425 -5 2 -3 194 -5 426 -6 260 0 422
-4 422 -10 0 -6 -299 -9 -802 -8 -442 1 -848 1 -903 0 -55 -1 -107 -1 -115 0
-41 5 -121 -2 -115 -10 3 -6 567 -9 1483 -7 812 1 1488 0 1502 -4 34 -9 68 -1
49 11 -11 7 -9 9 6 9 11 0 154 1 318 3 262 2 339 -2 280 -16 -10 -2 16 -2 57
0 l75 3 -158 -39 c-86 -22 -214 -47 -285 -56 -70 -9 -158 -23 -197 -31 -38 -8
-88 -18 -110 -22 l-40 -8 33 -11 c37 -14 42 -25 10 -23 -13 1 -34 1 -48 0 -45
-5 102 -18 225 -20 149 -2 190 -14 81 -23 -44 -4 -115 -7 -160 -8 -51 -1 -72
-4 -56 -8 14 -4 99 -7 190 -6 164 2 165 2 91 -11 -41 -7 -118 -12 -172 -10
-55 1 -99 -2 -99 -7 0 -4 -36 -5 -81 -2 -99 8 -98 -7 1 -24 129 -23 94 -33
-108 -30 -105 2 -194 1 -197 -3 -12 -11 67 -39 116 -41 26 -1 45 -5 42 -10
-15 -25 179 -48 423 -50 102 -1 177 -4 167 -8 -15 -7 -15 -8 5 -8 14 -1 21 -5
16 -12 -4 -8 3 -9 22 -5 16 3 61 8 99 11 39 3 104 17 145 30 67 22 62 24 -20
8 -23 -4 -23 -3 -6 8 10 6 46 12 80 14 33 1 96 14 139 29 86 29 97 31 97 15 0
-5 -4 -7 -10 -4 -5 3 -10 2 -10 -3 0 -6 -61 -29 -135 -53 -144 -46 -171 -62
-56 -34 39 9 76 15 83 12 7 -2 21 0 32 5 10 6 69 25 130 43 125 37 216 72 360
139 54 25 102 43 107 40 5 -3 9 1 9 9 0 8 27 26 61 41 33 14 80 40 105 57 l44
30 0 -583 c0 -399 -5 -654 -15 -808 -16 -240 -21 -281 -37 -258 -7 9 -8 6 -4
-11 l5 -23 -162 4 c-89 2 -146 1 -127 -3 25 -4 8 -7 -60 -9 -52 -2 -142 -4
-200 -6 -58 -2 -361 -6 -675 -10 -313 -4 -572 -8 -574 -10 -4 -4 168 -5 951
-8 214 0 388 -4 388 -7 0 -3 -33 -7 -72 -8 -40 -1 -91 -4 -113 -6 -22 -2 -184
-7 -360 -10 -188 -4 -328 -11 -340 -17 -13 -8 -20 -8 -23 0 -2 7 -14 7 -35 1
-18 -5 -129 -9 -247 -10 -118 0 -224 -4 -235 -9 -12 -5 154 -9 398 -11 229 -1
422 -3 427 -4 6 -1 119 -3 252 -4 133 0 238 -4 234 -8 -4 -5 -69 -11 -144 -14
l-137 -6 138 0 c76 -1 141 -4 145 -8 4 -4 -293 -5 -660 -3 -395 3 -668 1 -668
-4 0 -5 4 -7 9 -4 16 10 1066 -23 1056 -33 -4 -3 -207 -5 -453 -5 -280 1 -404
-1 -332 -6 63 -4 264 -9 445 -10 244 -2 299 -5 210 -10 -85 -4 -1363 -5 -1610
-1 -5 0 -111 -4 -235 -9 -124 -5 -367 -14 -540 -20 -368 -13 -882 -39 -889
-46 -2 -2 7 -5 20 -5 13 -1 -3 -7 -36 -14 l-60 -12 125 -6 c108 -6 711 -20
927 -21 40 -1 73 -3 73 -6 0 -3 12 -7 27 -8 14 -1 29 -4 31 -7 5 -4 -46 -6
-335 -9 -87 -1 -128 -15 -50 -17 26 -1 52 -3 57 -4 6 -1 40 -3 77 -4 105 -2
70 -9 -82 -16 -77 -4 -171 -11 -210 -15 l-70 -7 70 -2 c82 -2 208 -12 214 -17
2 -2 -56 -4 -130 -5 -152 -1 -227 -17 -89 -19 47 -1 92 -3 100 -4 8 -2 186 -6
395 -10 209 -3 449 -8 532 -11 84 -3 153 -1 153 3 0 8 749 -4 758 -12 3 -3
-69 -7 -159 -8 l-164 -2 130 -6 130 -5 -85 -13 c-75 -11 -393 -39 -655 -57
-49 -4 -100 -8 -112 -10 -12 -2 -117 -7 -234 -11 -217 -7 -349 -23 -194 -23
44 0 132 -1 195 -2 l115 -2 -75 -8 c-41 -5 -105 -10 -143 -12 -37 -3 -70 -7
-74 -11 -6 -6 99 -9 247 -8 136 2 37 -17 -145 -27 -146 -8 -110 -9 260 -7 503
1 478 -9 -45 -20 -201 -5 -351 -11 -335 -15 17 -4 75 -7 130 -8 55 -1 165 -6
245 -11 242 -17 619 -13 840 9 395 40 505 53 522 62 20 10 166 14 175 5 4 -3
-32 -7 -78 -8 -46 -1 35 -5 181 -9 146 -5 283 -10 305 -11 22 -2 61 -5 88 -6
26 -1 47 -6 47 -11 0 -4 -87 -11 -192 -15 -207 -7 -471 -27 -450 -34 6 -2 10
-8 6 -13 -3 -5 22 -9 58 -9 44 0 59 -3 48 -10 -8 -5 -60 -10 -114 -10 -55 0
-97 -2 -95 -4 6 -5 115 -15 184 -16 44 -1 55 -4 40 -10 -13 -6 0 -8 40 -5 60
4 60 4 15 -6 -25 -5 -73 -7 -107 -4 -42 5 -63 3 -63 -4 0 -6 3 -10 8 -10 4 1
30 0 57 -1 95 -4 7 -16 -200 -29 -196 -12 -466 -19 -734 -20 -74 -1 -132 -3
-130 -5 12 -12 155 -16 639 -18 294 0 522 -3 505 -4 -204 -22 -418 -34 -615
-33 -103 0 -512 -19 -592 -27 -120 -12 -50 -19 177 -16 149 2 235 -1 235 -7 0
-6 -67 -10 -172 -11 -95 -1 -195 -4 -223 -6 -27 -2 -156 -7 -285 -9 -313 -7
-542 -16 -537 -21 2 -3 263 -5 578 -6 l574 -1 -335 -8 c-424 -10 -486 -14
-285 -19 88 -2 165 -4 170 -5 6 -2 26 -4 45 -5 35 -3 -33 -10 -250 -26 -107
-8 -111 -9 -54 -14 34 -3 101 -3 150 0 49 3 100 3 114 0 15 -4 -15 -10 -75
-14 -55 -4 -120 -9 -145 -11 -25 -2 -115 -7 -200 -11 -85 -3 -222 -12 -305
-19 -124 -10 -138 -13 -80 -15 39 -1 76 -2 84 -1 7 2 11 -2 7 -7 -3 -5 0 -9 7
-9 15 0 276 -15 332 -18 87 -6 264 -7 274 -1 5 4 12 2 15 -3 12 -19 -20 -23
-212 -26 -108 -1 -213 -4 -232 -6 -106 -10 722 -15 2255 -12 1548 2 1950 6
1964 19 4 4 -304 9 -341 6 -10 -1 -18 2 -18 7 0 12 40 19 105 20 115 2 462 23
490 30 27 7 25 8 -25 14 -110 12 -327 27 -410 28 -47 0 -94 4 -104 8 -18 7
-18 8 5 14 13 4 62 7 109 7 143 1 69 20 -108 29 l-157 7 130 8 c234 14 190 24
-109 25 -159 1 -292 4 -295 6 -4 5 284 10 604 10 99 0 205 2 235 4 54 4 53 4
-35 14 -49 6 -129 10 -177 9 -61 -2 -88 1 -88 9 0 7 10 9 25 7 14 -3 28 -2 30
2 5 9 -55 17 -202 26 -91 6 -103 5 -103 -10 0 -18 15 -20 153 -17 53 1 87 -3
87 -9 0 -6 -60 -10 -162 -10 -89 0 -158 3 -154 7 4 4 19 7 33 8 27 0 44 35 18
35 -7 0 -16 6 -18 13 -4 9 -6 9 -6 0 -1 -10 -7 -10 -28 0 -21 9 -27 9 -31 -1
-2 -6 -13 -12 -25 -12 -18 0 -19 2 -7 10 8 5 11 12 7 16 -3 4 -13 1 -21 -5
-10 -8 -16 -9 -21 -1 -3 6 -10 8 -15 5 -10 -6 -133 -6 -400 -1 -328 6 -348 7
-310 16 19 4 213 11 430 14 217 4 526 11 685 16 160 5 380 10 490 12 110 1
-23 5 -295 9 -485 7 -801 17 -809 25 -11 11 23 14 254 25 138 6 279 14 315 17
l65 7 -90 6 c-82 5 -76 6 70 9 154 4 156 4 65 10 -88 6 -90 6 -30 9 62 2 156
17 135 21 -5 1 -26 3 -45 4 -19 2 -53 6 -75 9 -22 4 -101 9 -175 12 -74 3
-148 7 -165 9 -16 2 -124 7 -240 10 -209 6 -349 15 -343 22 2 1 114 6 248 9
135 3 270 8 300 10 30 2 204 7 385 10 182 3 348 10 370 16 22 5 110 13 195 17
l155 7 -52 18 c-28 9 -61 17 -72 17 -12 0 -21 5 -21 10 0 6 -28 10 -64 10 -35
0 -66 4 -68 9 -1 5 -201 14 -443 21 -242 7 -458 14 -480 16 -22 1 -77 3 -122
3 -46 1 -83 5 -83 9 0 5 125 12 278 15 152 4 340 10 416 13 118 6 138 5 131
-7 -7 -12 -6 -12 9 0 12 10 20 11 24 4 5 -7 132 -10 392 -10 212 1 358 4 325
7 l-60 7 80 1 c53 0 73 -2 60 -8 -13 -6 -15 -9 -5 -9 27 -1 60 11 54 20 -3 5
8 9 24 9 40 0 62 25 30 34 -13 3 -196 6 -408 6 -545 0 -1006 11 -984 23 9 5
58 10 108 9 50 0 81 2 69 5 -43 9 -23 23 35 25 31 1 -10 5 -93 9 -82 4 -244 6
-360 3 -131 -3 -216 0 -225 6 -11 7 3 10 50 11 37 2 5 5 -75 10 -77 4 -172 5
-211 2 -98 -7 -102 10 -6 31 42 9 108 24 146 33 186 41 223 44 794 53 309 5
566 11 571 14 4 3 296 10 647 16 351 5 709 13 794 17 l155 8 -105 6 -105 5
125 2 c92 1 121 -1 110 -9 -12 -9 -12 -10 3 -5 25 8 163 15 442 21 429 10 640
18 660 25 22 8 -946 18 -2455 26 -558 3 -1058 9 -1110 13 -55 5 258 9 740 10
459 1 885 4 945 6 61 2 218 4 349 4 132 1 237 3 235 5 -2 2 -35 6 -74 9 -84 6
-98 9 -108 22 -6 6 -10 6 -14 -2 -6 -15 -33 -17 -33 -3 0 6 -5 10 -11 10 -5 0
-7 -4 -4 -10 4 -6 -19 -10 -62 -9 -52 1 -60 3 -33 8 19 4 -32 6 -115 6 -260
-2 -783 10 -715 16 36 3 -77 6 -250 7 -173 1 -439 3 -590 6 -151 3 -322 6
-380 7 -84 1 -97 3 -65 10 22 4 78 9 125 9 47 1 108 5 135 9 46 7 42 8 -55 15
-58 4 -161 9 -230 10 -97 2 -124 6 -122 16 2 11 -1 10 -14 -1 -15 -12 -17 -12
-12 1 3 11 22 15 72 16 96 2 95 14 -1 14 l-81 0 -4 62 c-3 35 -5 163 -7 286
-2 225 -6 282 -22 282 -5 0 -10 -98 -11 -217 -1 -188 -2 -204 -8 -113 -9 133
-10 757 -2 868 l7 83 20 -38 c152 -294 369 -484 712 -624 97 -40 351 -114 360
-106 4 5 0 7 -134 56 -97 35 -323 149 -323 161 0 9 24 4 45 -10 6 -3 37 -16
70 -29 33 -12 80 -31 105 -41 97 -40 377 -121 483 -140 116 -20 317 -37 306
-26 -3 4 -68 16 -143 27 -240 35 -456 97 -644 184 -96 46 -126 73 -36 34 187
-81 328 -122 514 -149 209 -31 535 -52 517 -34 -4 4 -53 13 -109 20 -130 17
-228 36 -228 44 0 4 44 10 97 14 54 4 101 10 106 15 8 8 -87 27 -178 35 -28 3
-64 10 -80 16 -17 6 -32 11 -35 10 -2 -1 -6 4 -8 10 -3 7 5 9 25 4 34 -8 29
-3 -16 19 -27 13 -31 14 -21 2 10 -12 10 -15 -1 -16 -25 -2 -43 3 -64 18 -20
15 -19 15 5 10 24 -6 24 -5 6 9 -11 8 -27 12 -36 9 -9 -3 -46 6 -81 19 -84 33
-49 33 104 0 81 -17 163 -27 242 -29 93 -3 107 -2 60 4 -70 10 -258 55 -295
70 -27 12 -28 12 180 -8 131 -13 252 -14 281 -2 20 8 15 10 -31 11 -208 4
-318 18 -415 54 -56 21 -24 19 70 -3 44 -11 82 -18 84 -16 2 2 -16 12 -40 21
-68 28 -31 27 65 -1 49 -14 91 -24 93 -21 2 2 -28 13 -67 25 -39 12 -68 26
-66 30 3 5 35 6 71 3 72 -5 92 12 28 24 -119 20 -426 111 -382 113 9 1 36 -6
60 -14 125 -45 346 -74 405 -55 42 14 30 30 -22 30 -56 0 -267 40 -374 71
-196 57 -511 192 -655 282 -129 80 -178 118 -166 130 11 11 11 12 176 -46 128
-45 205 -65 302 -78 120 -15 283 -20 333 -10 42 8 43 9 11 10 -57 2 -212 22
-291 38 -41 8 -97 19 -125 25 -46 9 -112 37 -90 37 6 1 35 -6 65 -14 61 -17
401 -67 408 -61 2 3 -13 8 -34 11 -73 12 -199 35 -248 47 -34 7 -44 13 -34 19
8 4 42 2 77 -7 69 -16 129 -19 236 -14 l70 3 -85 9 c-151 15 -316 47 -387 73
-37 15 -83 31 -101 36 -19 6 -31 13 -29 16 3 3 52 -7 109 -22 88 -23 129 -28
282 -32 128 -4 176 -2 172 6 -4 6 -18 11 -30 11 -32 0 -277 46 -353 66 -34 9
-60 20 -58 25 3 4 -16 17 -42 30 -26 12 -41 25 -33 27 9 3 5 9 -11 18 -22 12
-18 13 46 15 39 1 102 0 140 -1 39 -2 97 -3 130 -3 33 0 202 1 375 1 173 0
322 1 330 2 8 0 265 2 570 4 484 4 1094 13 1185 18 17 1 5 4 -25 7 -30 3 -274
6 -542 6 -267 0 -484 3 -483 6 4 6 82 11 197 13 43 1 78 5 78 10 0 4 -62 5
-137 1 -143 -7 -1360 -12 -1541 -7 -88 3 -102 5 -91 18 6 8 8 14 4 14 -4 0
-13 -7 -19 -15 -9 -12 -45 -16 -179 -19 -152 -4 -174 -3 -220 15 -87 34 -80
39 59 39 87 0 124 -3 114 -10 -12 -8 -10 -10 8 -10 15 0 21 4 16 12 -5 8 -2 9
12 3 25 -11 112 -7 136 6 22 12 302 9 321 -3 7 -4 -2 -8 -20 -8 -18 0 -33 -5
-33 -11 0 -5 4 -8 10 -4 5 3 26 6 47 7 21 1 32 3 25 6 -6 2 -12 8 -12 14 0 18
121 4 135 -15 7 -9 14 -14 17 -12 3 3 35 6 71 6 37 1 65 5 62 9 -3 5 -32 7
-64 6 -33 -2 -65 0 -72 5 -8 5 56 8 151 8 142 -1 161 -2 136 -13 -22 -10 -25
-14 -12 -19 9 -4 16 -2 16 4 0 6 5 7 11 3 20 -12 68 -12 73 1 3 9 25 12 78 8
40 -2 86 -4 101 -3 20 0 26 -3 21 -12 -4 -7 2 -5 13 5 23 20 144 24 230 8 29
-6 62 -6 79 -1 24 7 17 8 -35 9 -99 1 -69 8 64 14 66 3 125 6 130 7 24 5 65
-1 65 -9 0 -5 -17 -8 -38 -6 -21 2 -44 0 -52 -5 -9 -6 57 -8 172 -7 102 1 184
5 181 10 -2 4 86 7 197 7 157 0 201 3 198 13 -3 7 -32 15 -69 19 -38 4 -68 13
-75 22 -9 14 -141 19 -401 17 -12 -1 -25 4 -28 9 -4 6 37 9 107 7 264 -5 1135
17 1147 29 2 2 -441 4 -985 4 -544 0 -1014 1 -1044 1 l-55 2 50 6 c59 7 852
11 2253 11 l1012 0 0 1334 0 1333 -59 13 c-33 7 -64 10 -69 6 -6 -3 -60 6
-120 21 -86 22 -112 32 -116 47 -3 11 -11 16 -19 13 -8 -3 -18 -2 -23 3 -5 5
-85 36 -178 69 -93 34 -174 65 -180 69 -6 5 -49 24 -96 42 -47 19 -149 64
-228 102 -79 37 -147 68 -151 68 -5 0 -25 14 -46 30 -21 17 -41 30 -46 30 -14
0 -262 151 -369 225 -134 93 -284 245 -242 245 5 0 21 -13 37 -30 28 -29 58
-43 36 -17 -6 8 -8 17 -4 20 3 4 -2 16 -12 27 -10 11 -13 20 -8 20 6 0 16 -7
23 -15 14 -16 50 -21 50 -6 0 14 -45 43 -135 87 -93 46 -194 135 -236 209 -15
27 -38 56 -49 63 -11 7 -34 34 -50 60 -16 26 -69 83 -117 128 -78 72 -116 120
-204 256 -13 21 -30 38 -36 38 -7 0 -13 5 -13 11 0 6 -7 3 -16 -5 -8 -9 -19
-16 -24 -16 -10 0 -35 41 -31 50 8 14 -19 8 -28 -7z"/>
<path d="M5003 8644 c1 -24 37 -31 37 -7 0 9 -6 13 -14 10 -8 -3 -17 -1 -19 6
-3 7 -5 3 -4 -9z"/>
<path d="M7219 8603 c-13 -16 -12 -17 4 -4 9 7 17 15 17 17 0 8 -8 3 -21 -13z"/>
<path d="M5140 8581 c0 -6 5 -13 10 -16 6 -3 10 1 10 9 0 9 -4 16 -10 16 -5 0
-10 -4 -10 -9z"/>
<path d="M3200 7891 c0 -5 5 -13 10 -16 6 -3 10 -2 10 4 0 5 -4 13 -10 16 -5
3 -10 2 -10 -4z"/>
<path d="M4285 7510 c3 -5 8 -10 11 -10 2 0 4 5 4 10 0 6 -5 10 -11 10 -5 0
-7 -4 -4 -10z"/>
<path d="M4102 7064 c4 -4 19 -8 34 -10 34 -3 21 9 -14 14 -15 2 -23 0 -20 -4z"/>
<path d="M9115 4119 c-78 -5 -79 -5 -20 -8 33 -1 130 -2 215 -2 455 0 603 2
597 7 -8 8 -687 11 -792 3z"/>
<path d="M9935 4120 c-3 -5 -1 -10 4 -10 6 0 11 5 11 10 0 6 -2 10 -4 10 -3 0
-8 -4 -11 -10z"/>
<path d="M9975 4121 c4 -7 44 -11 98 -10 110 1 89 15 -26 18 -53 1 -77 -1 -72
-8z"/>
<path d="M10188 4113 c12 -2 30 -2 40 0 9 3 -1 5 -23 4 -22 0 -30 -2 -17 -4z"/>
<path d="M8350 4011 c0 -4 32 -9 72 -10 40 -1 70 0 68 2 -10 9 -140 16 -140 8z"/>
<path d="M8828 4003 c7 -3 16 -2 19 1 4 3 -2 6 -13 5 -11 0 -14 -3 -6 -6z"/>
<path d="M6080 3976 c4 -4 16 -4 26 2 16 9 14 10 -8 9 -15 -1 -23 -6 -18 -11z"/>
<path d="M6148 3983 c6 -2 18 -2 25 0 6 3 1 5 -13 5 -14 0 -19 -2 -12 -5z"/>
<path d="M6438 3978 c-16 -9 -15 -10 45 -14 26 -1 47 2 47 7 0 5 -8 9 -17 10
-10 0 -28 2 -40 3 -12 1 -28 -1 -35 -6z"/>
<path d="M6709 3979 c-15 -9 53 -18 70 -9 9 5 1 9 -23 12 -20 2 -41 1 -47 -3z"/>
<path d="M7528 3983 c6 -2 18 -2 25 0 6 3 1 5 -13 5 -14 0 -19 -2 -12 -5z"/>
<path d="M5767 3973 c18 -2 50 -2 70 0 21 2 7 4 -32 4 -38 0 -55 -2 -38 -4z"/>
<path d="M6245 3970 c-38 -4 -56 -8 -40 -9 48 -5 99 0 110 10 5 5 7 8 5 7 -3
-1 -36 -4 -75 -8z"/>
<path d="M7485 3970 c-3 -5 -1 -10 4 -10 6 0 11 5 11 10 0 6 -2 10 -4 10 -3 0
-8 -4 -11 -10z"/>
<path d="M6938 3963 c7 -3 16 -2 19 1 4 3 -2 6 -13 5 -11 0 -14 -3 -6 -6z"/>
<path d="M7003 3963 c9 -2 23 -2 30 0 6 3 -1 5 -18 5 -16 0 -22 -2 -12 -5z"/>
<path d="M13 3953 c9 -2 23 -2 30 0 6 3 -1 5 -18 5 -17 0 -22 -2 -12 -5z"/>
<path d="M90 3952 c0 -9 45 -10 53 -2 3 3 -8 6 -24 7 -16 1 -29 -1 -29 -5z"/>
<path d="M165 3950 c3 -5 27 -10 53 -9 38 1 42 2 22 9 -37 12 -82 12 -75 0z"/>
<path d="M290 3950 c0 -5 36 -9 85 -8 46 0 82 5 79 9 -7 12 -164 11 -164 -1z"/>
<path d="M6678 3943 c12 -2 30 -2 40 0 9 3 -1 5 -23 4 -22 0 -30 -2 -17 -4z"/>
<path d="M908 3933 c6 -2 18 -2 25 0 6 3 1 5 -13 5 -14 0 -19 -2 -12 -5z"/>
<path d="M7958 3933 c12 -2 32 -2 45 0 12 2 2 4 -23 4 -25 0 -35 -2 -22 -4z"/>
<path d="M768 3923 c6 -2 18 -2 25 0 6 3 1 5 -13 5 -14 0 -19 -2 -12 -5z"/>
<path d="M1018 3923 c34 -2 90 -2 125 0 34 2 6 3 -63 3 -69 0 -97 -1 -62 -3z"/>
<path d="M2143 3923 c20 -2 54 -2 75 0 20 2 3 4 -38 4 -41 0 -58 -2 -37 -4z"/>
<path d="M9215 3909 c-49 -6 -49 -6 -10 -8 79 -4 498 -1 503 3 7 8 -435 12
-493 5z"/>
<path d="M8735 3900 c4 -6 11 -8 16 -5 14 9 11 15 -7 15 -8 0 -12 -5 -9 -10z"/>
<path d="M8775 3900 c4 -6 11 -8 16 -5 14 9 11 15 -7 15 -8 0 -12 -5 -9 -10z"/>
<path d="M8842 3905 c7 -8 307 -9 315 -1 3 3 -67 6 -157 6 -90 0 -161 -2 -158
-5z"/>
<path d="M9733 3904 c8 -8 410 -11 467 -3 25 3 -72 7 -214 7 -143 1 -257 -1
-253 -4z"/>
<path d="M3 3894 c11 -11 96 -14 102 -4 4 6 -17 10 -51 10 -32 0 -54 -3 -51
-6z"/>
<path d="M3180 3880 c0 -6 41 -10 104 -10 59 0 108 4 111 10 4 6 -33 10 -104
10 -67 0 -111 -4 -111 -10z"/>
<path d="M3410 3878 c0 -5 35 -7 78 -7 78 2 69 6 -26 11 -28 2 -52 0 -52 -4z"/>
<path d="M3600 3884 c59 -8 138 -8 133 -1 -2 4 -39 6 -81 6 -42 -1 -66 -3 -52
-5z"/>
<path d="M5980 3856 c0 -2 16 -6 35 -8 19 -2 35 0 35 4 0 4 -16 8 -35 8 -19 0
-35 -2 -35 -4z"/>
<path d="M6078 3843 c12 -2 32 -2 45 0 12 2 2 4 -23 4 -25 0 -35 -2 -22 -4z"/>
<path d="M6228 3833 c18 -2 45 -2 60 0 15 2 0 4 -33 4 -33 0 -45 -2 -27 -4z"/>
<path d="M6378 3833 c6 -2 18 -2 25 0 6 3 1 5 -13 5 -14 0 -19 -2 -12 -5z"/>
<path d="M4751 3710 c-12 -17 -26 -28 -30 -25 -5 3 -11 -2 -15 -10 -3 -8 -12
-15 -21 -15 -8 0 -15 -4 -15 -8 0 -5 -9 -19 -20 -32 -11 -13 -20 -20 -20 -16
0 4 -17 -9 -37 -28 -54 -51 -62 -45 -17 12 59 74 61 81 8 28 -27 -26 -53 -49
-59 -50 -5 0 -25 -19 -45 -41 -170 -191 -475 -374 -752 -451 -32 -8 -58 -18
-58 -21 0 -3 23 -2 50 2 39 5 50 4 50 -7 0 -10 2 -10 8 0 5 7 21 15 37 18 16
3 32 7 37 10 4 3 8 0 8 -5 0 -6 -7 -11 -15 -11 -8 0 -15 -6 -15 -13 0 -10 12
-12 50 -7 28 4 53 3 56 -2 6 -9 -13 -18 -48 -22 -13 -1 -28 -5 -33 -8 -6 -3
-26 -11 -45 -17 -134 -41 -184 -68 -85 -45 28 6 29 5 11 -9 -19 -14 -17 -14
20 -11 37 3 81 12 149 29 36 9 26 -6 -20 -29 l-30 -16 55 -1 c39 0 49 -3 35
-9 -11 -4 -32 -5 -47 -3 -17 3 -28 1 -28 -6 0 -6 5 -11 10 -11 6 0 10 -5 10
-11 0 -5 -5 -7 -10 -4 -6 4 -16 2 -23 -3 -7 -5 -25 -12 -41 -16 -15 -4 -27 -9
-25 -11 2 -2 47 5 99 16 52 11 99 18 104 16 6 -2 -25 -18 -69 -36 -93 -37 -81
-35 70 12 204 63 396 152 504 233 50 38 180 167 269 268 18 21 35 51 39 67 3
16 10 32 14 35 5 3 9 10 9 15 0 6 -19 -8 -42 -29 -67 -62 -148 -124 -148 -112
0 6 35 57 78 113 77 99 115 157 72 107 -52 -60 -133 -140 -142 -140 -5 0 6 21
26 48 66 87 158 223 154 228 -3 2 -15 -11 -28 -29 -46 -62 -144 -167 -157
-167 -19 0 -16 28 7 52 17 18 108 151 134 196 15 25 -11 11 -33 -18z"/>
<path d="M3130 3656 c0 -2 7 -6 15 -10 8 -3 15 -1 15 4 0 6 -7 10 -15 10 -8 0
-15 -2 -15 -4z"/>
<path d="M2995 3601 c-19 -8 -19 -8 2 -19 24 -13 61 -16 49 -4 -4 4 -12 8 -17
8 -22 3 -23 5 -9 14 18 11 3 12 -25 1z"/>
<path d="M4335 3449 c-33 -27 -71 -60 -85 -73 -84 -79 -282 -173 -513 -243
-152 -47 -192 -68 -78 -43 193 43 407 131 556 229 60 39 193 166 184 175 -2 3
-31 -17 -64 -45z"/>
<path d="M3456 3421 c-3 -4 -45 -9 -93 -10 -106 -2 -315 -19 -322 -27 -8 -8
387 -3 453 7 75 10 90 25 29 28 -26 1 -50 4 -54 7 -4 2 -10 0 -13 -5z"/>
<path d="M4165 3360 c-3 -5 -1 -10 4 -10 6 0 11 5 11 10 0 6 -2 10 -4 10 -3 0
-8 -4 -11 -10z"/>
<path d="M4725 3209 c-84 -70 -296 -210 -380 -252 -130 -64 -341 -141 -460
-167 -84 -19 -275 -40 -375 -41 -76 -2 -86 -3 -50 -9 62 -9 289 -3 385 10 213
31 468 123 645 235 61 38 134 99 205 167 116 113 130 140 30 57z"/>
<path d="M5140 3191 c0 -5 5 -13 10 -16 6 -3 10 -2 10 4 0 5 -4 13 -10 16 -5
3 -10 2 -10 -4z"/>
<path d="M5152 3100 c0 -19 2 -27 5 -17 2 9 2 25 0 35 -3 9 -5 1 -5 -18z"/>
<path d="M3548 3073 c7 -3 16 -2 19 1 4 3 -2 6 -13 5 -11 0 -14 -3 -6 -6z"/>
<path d="M3630 3050 c-8 -5 -10 -10 -5 -10 6 0 17 5 25 10 8 5 11 10 5 10 -5
0 -17 -5 -25 -10z"/>
<path d="M5156 2935 c4 -8 8 -15 10 -15 2 0 4 7 4 15 0 8 -4 15 -10 15 -5 0
-7 -7 -4 -15z"/>
<path d="M3728 2903 c7 -3 16 -2 19 1 4 3 -2 6 -13 5 -11 0 -14 -3 -6 -6z"/>
<path d="M3668 2843 c7 -3 16 -2 19 1 4 3 -2 6 -13 5 -11 0 -14 -3 -6 -6z"/>
<path d="M3538 2833 c6 -2 18 -2 25 0 6 3 1 5 -13 5 -14 0 -19 -2 -12 -5z"/>
<path d="M3738 2823 c7 -3 16 -2 19 1 4 3 -2 6 -13 5 -11 0 -14 -3 -6 -6z"/>
<path d="M3490 2810 c10 -6 -2 -10 -40 -13 -51 -3 -50 -3 15 -5 64 -1 68 0 51
13 -11 8 -25 15 -30 15 -6 0 -4 -4 4 -10z"/>
<path d="M3548 2809 c-26 -16 2 -19 78 -8 43 6 81 13 84 15 8 8 -149 1 -162
-7z"/>
<path d="M4510 2160 l-75 -6 78 -2 c46 -1 77 2 77 8 0 6 -1 9 -2 8 -2 -1 -37
-4 -78 -8z"/>
<path d="M4630 2159 c0 -5 5 -7 10 -4 6 3 10 8 10 11 0 2 -4 4 -10 4 -5 0 -10
-5 -10 -11z"/>
<path d="M4682 2165 c3 -3 22 -6 42 -7 20 -1 39 -5 42 -10 3 -4 10 -8 15 -8 6
0 4 7 -5 15 -8 9 -33 15 -57 15 -23 0 -40 -2 -37 -5z"/>
<path d="M4288 2143 c17 -2 47 -2 65 0 17 2 3 4 -33 4 -36 0 -50 -2 -32 -4z"/>
<path d="M2935 2090 c-19 -8 -19 -9 3 -9 12 -1 22 4 22 9 0 6 -1 10 -2 9 -2 0
-12 -4 -23 -9z"/>
<path d="M2970 2088 c0 -4 4 -8 9 -8 6 0 12 4 15 8 3 5 -1 9 -9 9 -8 0 -15 -4
-15 -9z"/>
<path d="M6843 2053 c9 -2 23 -2 30 0 6 3 -1 5 -18 5 -16 0 -22 -2 -12 -5z"/>
<path d="M2643 1963 c9 -2 23 -2 30 0 6 3 -1 5 -18 5 -16 0 -22 -2 -12 -5z"/>
<path d="M2730 1910 c0 -6 24 -10 57 -10 68 0 65 9 -6 16 -32 3 -51 1 -51 -6z"/>
<path d="M3038 1913 c7 -3 16 -2 19 1 4 3 -2 6 -13 5 -11 0 -14 -3 -6 -6z"/>
<path d="M1158 1713 c18 -2 45 -2 60 0 15 2 0 4 -33 4 -33 0 -45 -2 -27 -4z"/>
<path d="M1023 1663 c9 -2 23 -2 30 0 6 3 -1 5 -18 5 -16 0 -22 -2 -12 -5z"/>
<path d="M5808 1653 c7 -3 16 -2 19 1 4 3 -2 6 -13 5 -11 0 -14 -3 -6 -6z"/>
<path d="M7038 1603 c6 -2 18 -2 25 0 6 3 1 5 -13 5 -14 0 -19 -2 -12 -5z"/>
<path d="M7128 1603 c29 -2 74 -2 100 0 26 2 2 3 -53 3 -55 0 -76 -1 -47 -3z"/>
<path d="M7028 1583 c6 -2 18 -2 25 0 6 3 1 5 -13 5 -14 0 -19 -2 -12 -5z"/>
<path d="M6993 1563 c9 -2 23 -2 30 0 6 3 -1 5 -18 5 -16 0 -22 -2 -12 -5z"/>
<path d="M6368 1393 c6 -2 18 -2 25 0 6 3 1 5 -13 5 -14 0 -19 -2 -12 -5z"/>
<path d="M3243 1183 c9 -2 23 -2 30 0 6 3 -1 5 -18 5 -16 0 -22 -2 -12 -5z"/>
<path d="M2423 1143 c15 -2 39 -2 55 0 15 2 2 4 -28 4 -30 0 -43 -2 -27 -4z"/>
<path d="M2518 1143 c7 -3 16 -2 19 1 4 3 -2 6 -13 5 -11 0 -14 -3 -6 -6z"/>
<path d="M5978 973 c6 -2 18 -2 25 0 6 3 1 5 -13 5 -14 0 -19 -2 -12 -5z"/>
<path d="M5988 913 c7 -3 16 -2 19 1 4 3 -2 6 -13 5 -11 0 -14 -3 -6 -6z"/>
<path d="M1768 763 c6 -2 18 -2 25 0 6 3 1 5 -13 5 -14 0 -19 -2 -12 -5z"/>
<path d="M2795 720 c-434 -3 -765 -8 -735 -11 83 -8 2025 -8 2835 0 l710 7
-965 3 c-531 1 -985 3 -1010 4 -25 1 -400 0 -835 -3z"/>
<path d="M1883 713 c15 -2 39 -2 55 0 15 2 2 4 -28 4 -30 0 -43 -2 -27 -4z"/>
<path d="M1978 713 c7 -3 16 -2 19 1 4 3 -2 6 -13 5 -11 0 -14 -3 -6 -6z"/>
<path d="M5658 713 c7 -3 16 -2 19 1 4 3 -2 6 -13 5 -11 0 -14 -3 -6 -6z"/>
<path d="M5718 713 c12 -2 30 -2 40 0 9 3 -1 5 -23 4 -22 0 -30 -2 -17 -4z"/>
<path d="M2158 673 c138 -2 366 -2 505 0 138 1 25 2 -253 2 -278 0 -391 -1
-252 -2z"/>
<path d="M3053 673 c71 -2 183 -2 250 0 67 1 10 3 -128 3 -137 0 -192 -2 -122
-3z"/>
<path d="M3468 673 c23 -2 59 -2 80 0 20 2 1 4 -43 4 -44 0 -61 -2 -37 -4z"/>
<path d="M3683 673 c43 -2 110 -2 150 0 40 1 5 3 -78 3 -82 0 -115 -2 -72 -3z"/>
<path d="M3978 673 c23 -2 59 -2 80 0 20 2 1 4 -43 4 -44 0 -61 -2 -37 -4z"/>
<path d="M4453 673 c15 -2 39 -2 55 0 15 2 2 4 -28 4 -30 0 -43 -2 -27 -4z"/>
<path d="M4583 673 c9 -2 23 -2 30 0 6 3 -1 5 -18 5 -16 0 -22 -2 -12 -5z"/>
<path d="M4673 673 c15 -2 39 -2 55 0 15 2 2 4 -28 4 -30 0 -43 -2 -27 -4z"/>
<path d="M5188 673 c34 -2 90 -2 125 0 34 2 6 3 -63 3 -69 0 -97 -1 -62 -3z"/>
</g>
</svg>
